<?xml version="1.0" encoding="UTF-8" standalone="no"?>
<!-- Created with Inkscape (http://www.inkscape.org/) -->

<svg
   xmlns:dc="http://purl.org/dc/elements/1.1/"
   xmlns:cc="http://creativecommons.org/ns#"
   xmlns:rdf="http://www.w3.org/1999/02/22-rdf-syntax-ns#"
   xmlns:svg="http://www.w3.org/2000/svg"
   xmlns="http://www.w3.org/2000/svg"
   xmlns:sodipodi="http://sodipodi.sourceforge.net/DTD/sodipodi-0.dtd"
   xmlns:inkscape="http://www.inkscape.org/namespaces/inkscape"
   id="svg3336"
   version="1.1"
   inkscape:version="0.91 r13725"
   xml:space="preserve"
   width="87.119125"
   height="46.611874"
   viewBox="0 0 87.119126 46.611874"
   sodipodi:docname="ess_logo.svg"><metadata
     id="metadata3342"><rdf:RDF><cc:Work
         rdf:about=""><dc:format>image/svg+xml</dc:format><dc:type
           rdf:resource="http://purl.org/dc/dcmitype/StillImage" /><dc:title></dc:title></cc:Work></rdf:RDF></metadata><defs
     id="defs3340"><clipPath
       clipPathUnits="userSpaceOnUse"
       id="clipPath3352"><path
         d="m 0,0 3628,0 0,2720.67 -3628,0 L 0,0 Z"
         id="path3354"
         inkscape:connector-curvature="0" /></clipPath><clipPath
       clipPathUnits="userSpaceOnUse"
       id="clipPath3366"><path
         d="m 2827.25,2635.55 700.69,0 0,-378.95 -700.69,0 0,378.95 z"
         id="path3368"
         inkscape:connector-curvature="0" /></clipPath></defs><sodipodi:namedview
     pagecolor="#ffffff"
     bordercolor="#666666"
     borderopacity="1"
     objecttolerance="10"
     gridtolerance="10"
     guidetolerance="10"
     inkscape:pageopacity="0"
     inkscape:pageshadow="2"
     inkscape:window-width="1619"
     inkscape:window-height="1025"
     id="namedview3338"
     showgrid="false"
     inkscape:zoom="2.6428545"
     inkscape:cx="-126.6375"
     inkscape:cy="-112.62"
     inkscape:window-x="569"
     inkscape:window-y="224"
     inkscape:window-maximized="0"
     inkscape:current-layer="g3346"
     fit-margin-top="0"
     fit-margin-left="0"
     fit-margin-right="0"
     fit-margin-bottom="0" /><g
     id="g3344"
     inkscape:groupmode="layer"
     inkscape:label="ess-latex"
     transform="matrix(1.25,0,0,-1.25,-353.40625,329.31313)"><g
       id="g3346"
       transform="scale(0.1,0.1)"><g
         id="g3362"><g
           id="g3364"
           clip-path="url(#clipPath3366)"><path
             d="m 2827.25,2261.61 696.953,0 0,372.895 -696.953,0 0,-372.895 z"
             style="fill:#029fe0;fill-opacity:1;fill-rule:nonzero;stroke:none"
             id="path3370"
             inkscape:connector-curvature="0" /><path
             d="m 3233.48,2537.15 22.9,0 0,-5.85 -16.75,0 0,-9.51 13.56,0 0,-5.74 -13.56,0 0,-9.28 16.75,0 0,-5.89 -22.9,0 0,36.27"
             style="fill:#ffffff;fill-opacity:1;fill-rule:nonzero;stroke:none"
             id="path3372"
             inkscape:connector-curvature="0" /><path
             d="m 3275.77,2506.46 c 4.4,0 7.28,1.43 7.28,6.13 l 0,24.56 6.27,0 0,-24.56 c 0,-8.71 -4.71,-12.17 -13.55,-12.17 -8.69,0 -13.36,3.46 -13.36,12.17 l 0,24.56 6.27,0 0,-24.56 c 0,-4.74 2.84,-6.13 7.09,-6.13"
             style="fill:#ffffff;fill-opacity:1;fill-rule:nonzero;stroke:none"
             id="path3374"
             inkscape:connector-curvature="0" /><path
             d="m 3310.73,2531.3 -7.64,0 0,-12.17 7.76,0 c 4.27,0 5.88,2.55 5.88,6.24 0,4.01 -1.95,5.93 -6,5.93 z m -0.16,-18.05 -7.48,0 0,-12.37 -6.18,0 0,36.27 13.82,0 c 8.37,0 12.42,-3.38 12.42,-11.66 0,-5.47 -2.03,-8.59 -5.8,-10.44 l 5.8,-14.17 -6.85,0 -5.02,12.37 -0.71,0"
             style="fill:#ffffff;fill-opacity:1;fill-rule:nonzero;stroke:none"
             id="path3376"
             inkscape:connector-curvature="0" /><path
             d="m 3351.03,2518.79 c 0,8.42 -1.64,13.05 -8.38,13.05 -6.73,0 -8.37,-4.63 -8.37,-13.05 0,-8.47 1.6,-12.56 8.37,-12.56 6.78,0 8.38,4.01 8.38,12.56 z m -23.17,0 c 0,12.12 3.42,18.98 14.79,18.98 11.38,0 14.83,-6.86 14.83,-18.98 0,-12.29 -3.45,-18.49 -14.83,-18.49 -11.37,0 -14.79,6.28 -14.79,18.49"
             style="fill:#ffffff;fill-opacity:1;fill-rule:nonzero;stroke:none"
             id="path3378"
             inkscape:connector-curvature="0" /><path
             d="m 3377.11,2517.78 c 4.21,0 6.19,2.66 6.19,7.05 0,4.4 -1.98,6.44 -6.19,6.44 l -7.05,0 0,-13.49 7.05,0 z m -7.05,-5.92 0,-10.98 -6.18,0 0,36.27 13.31,0 c 8.33,0 12.46,-4.04 12.46,-12.32 0,-8.2 -4.13,-12.97 -12.46,-12.97 l -7.13,0"
             style="fill:#ffffff;fill-opacity:1;fill-rule:nonzero;stroke:none"
             id="path3380"
             inkscape:connector-curvature="0" /><path
             d="m 3395.53,2537.15 22.89,0 0,-5.85 -16.74,0 0,-9.51 13.54,0 0,-5.74 -13.54,0 0,-9.28 16.74,0 0,-5.89 -22.89,0 0,36.27"
             style="fill:#ffffff;fill-opacity:1;fill-rule:nonzero;stroke:none"
             id="path3382"
             inkscape:connector-curvature="0" /><path
             d="m 3431.58,2513.94 10.74,0 -4.04,17.6 -2.53,0 -4.17,-17.6 z m -0.63,23.21 12.23,0 8.64,-36.27 -6.23,0 -2.02,7.12 -13.32,0 -1.79,-7.12 -6.26,0 8.75,36.27"
             style="fill:#ffffff;fill-opacity:1;fill-rule:nonzero;stroke:none"
             id="path3384"
             inkscape:connector-curvature="0" /><path
             d="m 3457.16,2537.15 10.08,0 11.64,-28.61 0.9,0 0,28.61 6.27,0 0,-36.27 -9.82,0 -11.99,28.65 -0.9,0 0,-28.65 -6.18,0 0,36.27"
             style="fill:#ffffff;fill-opacity:1;fill-rule:nonzero;stroke:none"
             id="path3386"
             inkscape:connector-curvature="0" /><path
             d="m 3253.65,2468.64 c 0,0 -6.62,0.85 -9.69,0.85 -3.51,0 -5.61,-1.27 -5.61,-4 0,-3.17 1.44,-3.85 7.2,-5.94 6.58,-2.42 9.34,-4.26 9.34,-10.54 0,-7.56 -4.23,-11.02 -11.64,-11.02 -4.08,0 -11.21,1.39 -11.21,1.39 l 0.63,5.55 c 0,0 6.74,-0.89 10.51,-0.89 3.5,0 5.45,1.31 5.45,4.81 0,2.85 -1.28,3.61 -6.15,5.27 -7.95,2.89 -10.4,4.74 -10.4,11.25 0,6.85 4.83,10.13 11.88,10.13 4.09,0 10.12,-1.3 10.12,-1.3 l -0.43,-5.56"
             style="fill:#ffffff;fill-opacity:1;fill-rule:nonzero;stroke:none"
             id="path3388"
             inkscape:connector-curvature="0" /><path
             d="m 3274.87,2455.43 c 4.2,0 6.19,2.71 6.19,7.13 0,4.35 -1.99,6.39 -6.19,6.39 l -7.05,0 0,-13.52 7.05,0 z m -7.05,-5.88 0,-10.98 -6.19,0 0,36.32 13.28,0 c 8.33,0 12.46,-4.09 12.46,-12.33 0,-8.24 -4.13,-13.01 -12.46,-13.01 l -7.09,0"
             style="fill:#ffffff;fill-opacity:1;fill-rule:nonzero;stroke:none"
             id="path3390"
             inkscape:connector-curvature="0" /><path
             d="m 3297.76,2451.63 10.75,0 -4.09,17.56 -2.49,0 -4.17,-17.56 z m -0.65,23.26 12.21,0 8.68,-36.32 -6.25,0 -2.04,7.13 -13.31,0 -1.79,-7.13 -6.27,0 8.77,36.32"
             style="fill:#ffffff;fill-opacity:1;fill-rule:nonzero;stroke:none"
             id="path3392"
             inkscape:connector-curvature="0" /><path
             d="m 3323.31,2438.57 0,36.32 6.19,0 0,-30.39 14.24,0 0,-5.93 -20.43,0"
             style="fill:#ffffff;fill-opacity:1;fill-rule:nonzero;stroke:none"
             id="path3394"
             inkscape:connector-curvature="0" /><path
             d="m 3349.58,2438.57 0,36.32 6.23,0 0,-30.39 14.21,0 0,-5.93 -20.44,0"
             style="fill:#ffffff;fill-opacity:1;fill-rule:nonzero;stroke:none"
             id="path3396"
             inkscape:connector-curvature="0" /><path
             d="m 3382.4,2451.63 10.79,0 -4.09,17.56 -2.49,0 -4.21,-17.56 z m -0.61,23.26 12.25,0 8.66,-36.32 -6.27,0 -2.04,7.13 -13.3,0 -1.8,-7.13 -6.27,0 8.77,36.32"
             style="fill:#ffffff;fill-opacity:1;fill-rule:nonzero;stroke:none"
             id="path3398"
             inkscape:connector-curvature="0" /><path
             d="m 3403.47,2474.89 26.51,0 0,-5.94 -10.08,0 0,-30.38 -6.27,0 0,30.38 -10.16,0 0,5.94"
             style="fill:#ffffff;fill-opacity:1;fill-rule:nonzero;stroke:none"
             id="path3400"
             inkscape:connector-curvature="0" /><path
             d="m 3433.52,2438.57 6.2695,0 0,36.3203 -6.2695,0 0,-36.3203 z"
             style="fill:#ffffff;fill-opacity:1;fill-rule:nonzero;stroke:none"
             id="path3402"
             inkscape:connector-curvature="0" /><path
             d="m 3469.27,2456.44 c 0,8.47 -1.64,13.09 -8.38,13.09 -6.73,0 -8.36,-4.62 -8.36,-13.09 0,-8.44 1.59,-12.52 8.36,-12.52 6.82,0 8.38,4 8.38,12.52 z m -23.17,0 c 0,12.2 3.47,19.02 14.79,19.02 11.34,0 14.81,-6.82 14.81,-19.02 0,-12.24 -3.47,-18.45 -14.81,-18.45 -11.32,0 -14.79,6.31 -14.79,18.45"
             style="fill:#ffffff;fill-opacity:1;fill-rule:nonzero;stroke:none"
             id="path3404"
             inkscape:connector-curvature="0" /><path
             d="m 3482.11,2474.89 10.09,0 11.68,-28.66 0.9,0 0,28.66 6.27,0 0,-36.32 -9.82,0 -12.03,28.66 -0.9,0 0,-28.66 -6.19,0 0,36.32"
             style="fill:#ffffff;fill-opacity:1;fill-rule:nonzero;stroke:none"
             id="path3406"
             inkscape:connector-curvature="0" /><path
             d="m 3253.65,2406.3 c 0,0 -6.62,0.89 -9.69,0.89 -3.51,0 -5.61,-1.28 -5.61,-4.05 0,-3.12 1.44,-3.81 7.2,-5.89 6.58,-2.39 9.34,-4.28 9.34,-10.55 0,-7.55 -4.23,-11.02 -11.64,-11.02 -4.08,0 -11.21,1.39 -11.21,1.39 l 0.63,5.55 c 0,0 6.74,-0.89 10.51,-0.89 3.5,0 5.45,1.27 5.45,4.81 0,2.81 -1.28,3.62 -6.15,5.32 -7.95,2.88 -10.4,4.7 -10.4,11.21 0,6.89 4.83,10.12 11.88,10.12 4.09,0 10.12,-1.31 10.12,-1.31 l -0.43,-5.58"
             style="fill:#ffffff;fill-opacity:1;fill-rule:nonzero;stroke:none"
             id="path3408"
             inkscape:connector-curvature="0" /><path
             d="m 3283.05,2394.12 c 0,8.48 -1.63,13.11 -8.37,13.11 -6.74,0 -8.38,-4.63 -8.38,-13.11 0,-8.42 1.56,-12.51 8.38,-12.51 6.77,0 8.37,3.96 8.37,12.51 z m -23.17,0 c 0,12.18 3.42,18.99 14.8,18.99 11.33,0 14.79,-6.81 14.79,-18.99 0,-12.24 -3.46,-18.44 -14.79,-18.44 -11.38,0 -14.8,6.32 -14.8,18.44"
             style="fill:#ffffff;fill-opacity:1;fill-rule:nonzero;stroke:none"
             id="path3410"
             inkscape:connector-curvature="0" /><path
             d="m 3308.67,2381.8 c 4.32,0 7.24,1.51 7.24,6.16 l 0,24.62 6.26,0 0,-24.62 c 0,-8.69 -4.7,-12.16 -13.5,-12.16 -8.69,0 -13.4,3.47 -13.4,12.16 l 0,24.62 6.27,0 0,-24.62 c 0,-4.73 2.88,-6.16 7.13,-6.16"
             style="fill:#ffffff;fill-opacity:1;fill-rule:nonzero;stroke:none"
             id="path3412"
             inkscape:connector-curvature="0" /><path
             d="m 3343.63,2406.68 -7.67,0 0,-12.16 7.78,0 c 4.24,0 5.84,2.53 5.84,6.23 0,4.01 -1.94,5.93 -5.95,5.93 z m -0.2,-18.02 -7.47,0 0,-12.4 -6.19,0 0,36.32 13.86,0 c 8.37,0 12.38,-3.43 12.38,-11.71 0,-5.48 -1.98,-8.63 -5.8,-10.44 l 5.8,-14.17 -6.82,0 -5.05,12.4 -0.71,0"
             style="fill:#ffffff;fill-opacity:1;fill-rule:nonzero;stroke:none"
             id="path3414"
             inkscape:connector-curvature="0" /><path
             d="m 3384.79,2376.99 c 0,0 -6.24,-1.31 -10.4,-1.31 -11.1,0 -13.67,6.32 -13.67,18.68 0,13.21 3.27,18.75 13.67,18.75 4.59,0 10.43,-1.38 10.43,-1.38 l -0.23,-5.43 c 0,0 -6.2,0.81 -9.38,0.81 -6.43,0 -8.07,-3.05 -8.07,-12.75 0,-9.25 1.29,-12.63 8.29,-12.63 2.85,0 9.16,0.81 9.16,0.81 l 0.2,-5.55"
             style="fill:#ffffff;fill-opacity:1;fill-rule:nonzero;stroke:none"
             id="path3416"
             inkscape:connector-curvature="0" /><path
             d="m 3390.86,2412.58 22.89,0 0,-5.9 -16.75,0 0,-9.51 13.6,0 0,-5.78 -13.6,0 0,-9.23 16.75,0 0,-5.9 -22.89,0 0,36.32"
             style="fill:#ffffff;fill-opacity:1;fill-rule:nonzero;stroke:none"
             id="path3418"
             inkscape:connector-curvature="0" /><path
             d="m 2955.11,2343.29 c 11.29,-5.15 23.52,-8.74 36.41,-10.36 5.21,-0.69 10.5,-1.04 15.87,-1.04 -5.37,0 -10.66,0.35 -15.91,1.04 -12.85,1.66 -25.04,5.21 -36.37,10.36"
             style="fill:#029fe0;fill-opacity:1;fill-rule:nonzero;stroke:none"
             id="path3420"
             inkscape:connector-curvature="0" /><g
             id="g3422"
             transform="scale(1.00546,0.994536)"><path
               d="m 2955.82,2337.46 c -10.85,4.34 -21.34,9.88 -31.06,16.35 0,0.04 -0.04,0.04 -0.08,0.08 -0.08,0 -0.12,0.07 -0.19,0.07 -4.89,2.87 -9.6,5.96 -14.05,9.37 -13.63,10.42 -25.18,23.39 -33.92,38.18 -4.43,7.47 -7.87,15.53 -10.77,23.86 -4.81,13.67 -7.67,28.26 -7.67,43.55 0,6.16 0.46,12.21 1.28,18.09 0.19,1.31 0.54,2.59 0.77,3.95 0.74,4.45 1.6,8.9 2.75,13.2 0.54,1.94 1.29,3.8 1.94,5.73 1.12,3.52 2.25,7.09 3.72,10.5 0.89,2.16 2.01,4.19 3.02,6.27 0.96,2.02 1.81,4.07 2.9,6 -2.37,-2.9 -4.84,-5.72 -6.97,-8.79 -0.23,-0.35 -0.46,-0.73 -0.7,-1.08 -3.41,-4.95 -6.5,-10.11 -9.29,-15.41 -0.39,-0.65 -0.77,-1.32 -1.09,-1.97 -2.78,-5.39 -5.18,-10.93 -7.31,-16.58 -0.39,-1.01 -0.74,-1.97 -1.12,-2.98 -2.02,-5.69 -3.72,-11.46 -5.12,-17.35 -0.19,-0.85 -0.35,-1.66 -0.51,-2.52 -1.3,-6.19 -2.39,-12.46 -2.97,-18.81 l -0.04,-0.31 c -0.38,-4.53 -0.62,-9.06 -0.62,-13.71 0,-13.44 1.74,-27.11 5.38,-40.74 4.81,-17.81 12.51,-34.07 22.46,-48.48 5.65,-8.24 12.08,-15.88 19.24,-22.92 9.57,-10.14 20.76,-18.59 33.03,-24.94 17.24,-8.95 36.6,-13.82 56.58,-13.82 10.57,0 21.3,1.35 31.98,4.22 29.44,7.9 53.44,25.75 69.47,49.02 -2.05,-0.78 -4.14,-1.32 -6.23,-2.01 -1.83,-0.58 -3.64,-1.16 -5.5,-1.71 -3.49,-1 -7.01,-1.81 -10.57,-2.56 -1.48,-0.34 -2.9,-0.73 -4.42,-1 -4.14,-0.77 -8.33,-1.32 -12.5,-1.78 -0.93,-0.08 -1.9,-0.31 -2.84,-0.35 -5.22,-0.5 -10.44,-0.77 -15.72,-0.77 -21.41,0 -42.94,4.06 -63.26,12.15 z"
               style="fill:none;stroke:#ffffff;stroke-width:2.50879002;stroke-linecap:round;stroke-linejoin:round;stroke-miterlimit:4;stroke-dasharray:none;stroke-opacity:1"
               id="path3424"
               inkscape:connector-curvature="0" /></g><g
             id="g3426"
             transform="scale(1.00546,0.994536)"><path
               d="m 3111.32,2544.9 c 8.41,-20.32 12.98,-42.48 12.98,-65.25 0,-1.35 -0.12,-2.63 -0.16,-3.99 -0.04,-2.16 -0.04,-4.37 -0.15,-6.57 l 0,-0.13 c 0,-23.73 -6.28,-46.03 -17.2,-65.32 -0.81,-1.43 -1.78,-2.71 -2.63,-4.11 -20.56,-33.41 -55.41,-57.14 -96.22,-62.34 -1.17,-0.15 -2.41,-0.11 -3.57,-0.22 -3.68,-0.39 -7.35,-0.74 -11.15,-0.82 2.21,-0.34 4.38,-0.66 6.58,-0.93 1.7,-0.2 3.37,-0.51 5.08,-0.65 4.02,-0.36 8.05,-0.51 12.12,-0.55 0.69,-0.04 1.43,-0.12 2.12,-0.12 15.76,0 31.48,2.36 46.63,6.97 4.41,1.36 8.82,2.87 13.17,4.61 1.7,0.7 3.47,1.48 5.26,2.25 0.51,0.23 1,0.43 1.51,0.7 16.38,7.55 31.79,18.04 45.27,31.59 20.56,20.53 34.19,45.31 41.04,71.76 3.49,11.58 5.19,23.58 5.19,35.54 0,1.82 -0.08,3.68 -0.12,5.54 -1.35,29.65 -13.32,58.9 -35.97,81.55 -7.24,7.2 -15.14,13.32 -23.5,18.39 -16.66,10.03 -35.17,15.8 -53.91,17.26 0.12,-0.1 0.24,-0.22 0.36,-0.34 3.82,-3.25 7.58,-6.62 11.15,-10.22 15.44,-15.6 27.72,-34.19 36.12,-54.6 z"
               style="fill:none;stroke:#ffffff;stroke-width:2.50879002;stroke-linecap:round;stroke-linejoin:round;stroke-miterlimit:4;stroke-dasharray:none;stroke-opacity:1"
               id="path3428"
               inkscape:connector-curvature="0" /></g><g
             id="g3430"
             transform="scale(1.00546,0.994536)"><path
               d="m 2974.13,2600.74 c 0.62,0.08 1.28,0.08 1.86,0.16 4.61,0.5 9.22,0.89 13.9,0.92 0.24,0 0.62,0 1.16,0 5.07,0 10.07,-0.39 14.98,-0.92 0.63,-0.08 1.29,-0.08 1.94,-0.16 0.08,0 0.12,-0.04 0.2,-0.04 4.61,-0.58 9.14,-1.47 13.59,-2.56 1.47,-0.31 2.9,-0.73 4.34,-1.16 3.09,-0.81 6.15,-1.74 9.13,-2.82 1.55,-0.51 3.06,-1.12 4.61,-1.71 2.98,-1.2 5.93,-2.48 8.83,-3.91 1.24,-0.58 2.52,-1.12 3.72,-1.74 3.98,-2.09 7.94,-4.34 11.66,-6.82 0.61,-0.43 1.2,-0.88 1.81,-1.28 3.14,-2.16 6.2,-4.41 9.1,-6.81 1.16,-0.93 2.25,-1.89 3.33,-2.86 2.4,-2.1 4.73,-4.27 6.97,-6.51 1.05,-1.05 2.05,-2.05 3.06,-3.14 2.44,-2.59 4.76,-5.34 6.97,-8.17 0.59,-0.73 1.24,-1.43 1.83,-2.17 2.7,-3.6 5.26,-7.31 7.58,-11.19 -0.15,0.47 -0.31,0.93 -0.47,1.4 -1.16,2.94 -2.52,5.85 -3.86,8.71 -0.94,2.05 -1.83,4.15 -2.87,6.16 -1.47,2.86 -3.14,5.65 -4.81,8.4 -1.11,1.9 -2.16,3.83 -3.36,5.69 -1.86,2.83 -3.87,5.51 -5.88,8.17 -1.24,1.66 -2.37,3.41 -3.68,5.04 -2.56,3.17 -5.39,6.23 -8.22,9.22 -0.88,0.92 -1.65,1.93 -2.51,2.82 -4.1,4.11 -8.52,7.94 -13.05,11.62 -2.6,2.05 -5.19,4.17 -7.9,6.08 -14.71,10.45 -31.52,18.5 -49.95,23.38 -13.59,3.68 -27.26,5.42 -40.73,5.42 -14.26,0 -28.36,-1.97 -41.99,-5.73 -13.55,-3.21 -26.48,-8.71 -38.13,-16.19 -10.34,-6.62 -19.75,-14.83 -27.77,-24.35 -11.31,-13.39 -19.98,-29.46 -24.78,-47.51 -2.91,-10.69 -4.26,-21.41 -4.26,-31.91 0,-18.62 4.26,-36.71 12.08,-53.05 0.27,1.47 0.73,2.95 1.05,4.41 0.58,3.03 1.31,5.97 2.09,8.95 1.01,3.79 2.09,7.55 3.33,11.23 0.97,2.94 2.02,5.81 3.18,8.67 1.42,3.65 3.01,7.21 4.71,10.73 1.32,2.71 2.64,5.42 4.11,8.09 1.94,3.52 4.03,6.98 6.24,10.39 1.55,2.39 3.1,4.79 4.76,7.15 2.52,3.49 5.23,6.82 8.01,10.11 1.71,2.02 3.33,4.11 5.12,6.04 3.21,3.49 6.7,6.7 10.18,9.91 1.66,1.55 3.25,3.18 4.99,4.65 4.19,3.56 8.68,6.81 13.25,9.99 1.32,0.9 2.52,1.94 3.83,2.79 6,3.91 12.28,7.51 18.86,10.69 14.48,8.1 30.67,13.55 47.86,15.72 z"
               style="fill:none;stroke:#ffffff;stroke-width:2.50879002;stroke-linecap:round;stroke-linejoin:round;stroke-miterlimit:4;stroke-dasharray:none;stroke-opacity:1"
               id="path3432"
               inkscape:connector-curvature="0" /></g><g
             id="g3434"
             transform="scale(1.00546,0.994536)"><path
               d="m 3115.35,2469.31 c -0.12,34.55 -14.37,65.68 -37.18,88.14 -18.89,18.58 -43.67,31.24 -71.32,34.77 -5.19,0.66 -10.46,1 -15.8,1 -0.23,0 -0.5,0 -1.04,-0.04 -5.04,-0.04 -9.95,-0.38 -14.79,-1 -16.03,-2.01 -31.06,-7.09 -44.85,-14.75 -37.98,-21.26 -63.66,-61.84 -63.66,-108.51 0,-9.83 1.4,-19.35 3.57,-28.53 2.9,-12.27 7.39,-23.93 13.63,-34.5 3.25,-5.46 7.01,-10.54 10.99,-15.45 9.53,-11.58 20.99,-21.5 34.19,-29.16 3.23,-1.86 6.56,-3.57 9.96,-5.11 11.27,-5.19 23.39,-8.76 36.17,-10.42 5.22,-0.7 10.48,-1.04 15.83,-1.04 5.34,0 10.61,0.34 15.84,1.04 19.82,2.52 38.22,9.72 53.97,20.45 15.77,10.73 28.97,25.01 38.38,41.66 10.27,18.08 16.11,38.84 16.11,60.95 l 0,0.28 -0.03,0.22 0.03,0 z"
               style="fill:none;stroke:#ffffff;stroke-width:2.50879002;stroke-linecap:round;stroke-linejoin:round;stroke-miterlimit:4;stroke-dasharray:none;stroke-opacity:1"
               id="path3436"
               inkscape:connector-curvature="0" /></g><path
             d="m 3063.03,2470.88 -31.46,0 c -0.23,-3.74 0.74,-7.24 2.7,-9.67 0.18,-0.04 0.42,-0.12 0.61,-0.15 -4.7,1.26 -9.84,2.35 -15.26,3.39 -5.45,1.08 -10.55,1.65 -14.56,2.62 -4.63,1.11 -7.74,2.73 -7.98,6.32 -0.43,9.97 15.96,12.7 23.91,4.15 0.58,-0.65 1.21,-1.34 1.71,-2.15 l 3.03,0 29.75,-0.04 0,0.11 c -0.28,1.04 -0.55,1.97 -0.86,2.93 -0.07,0.27 -0.19,0.58 -0.31,0.88 -0.19,0.62 -0.43,1.23 -0.66,1.82 -0.16,0.3 -0.27,0.65 -0.39,0.95 -0.24,0.55 -0.55,1.09 -0.78,1.63 -0.16,0.27 -0.28,0.53 -0.43,0.81 -0.34,0.69 -0.69,1.26 -1.12,1.88 -0.08,0.12 -0.12,0.23 -0.2,0.35 -0.47,0.73 -0.98,1.43 -1.48,2.04 -0.07,0.16 -0.27,0.34 -0.38,0.5 -0.4,0.46 -0.79,0.96 -1.18,1.39 -0.19,0.19 -0.39,0.38 -0.54,0.57 -0.39,0.43 -0.77,0.81 -1.17,1.2 -0.23,0.15 -0.39,0.34 -0.58,0.5 -0.47,0.38 -0.94,0.8 -1.41,1.19 -0.08,0.08 -0.19,0.16 -0.27,0.24 l 0.04,0 c 2.72,-1.23 5.33,-2.79 7.83,-4.75 0.43,-0.34 0.89,-0.73 1.36,-1.15 0.19,-0.15 0.35,-0.34 0.54,-0.54 0.39,-0.35 0.79,-0.73 1.18,-1.15 0.19,-0.2 0.38,-0.35 0.53,-0.59 0.43,-0.45 0.82,-0.91 1.21,-1.37 0.12,-0.2 0.28,-0.35 0.39,-0.51 0.51,-0.61 0.98,-1.35 1.49,-2.04 0.07,-0.12 0.14,-0.23 0.22,-0.35 0.35,-0.62 0.71,-1.23 1.1,-1.89 0.11,-0.27 0.27,-0.53 0.39,-0.8 0.27,-0.54 0.54,-1.08 0.78,-1.66 0.15,-0.31 0.27,-0.58 0.42,-0.92 0.23,-0.62 0.47,-1.19 0.7,-1.82 0.04,-0.3 0.2,-0.6 0.27,-0.92 0.32,-0.92 0.59,-1.88 0.86,-2.89 l 0,-0.11 z m -148.18,-5.74 c 4.44,9.28 14.05,15.71 25.15,15.71 6.81,0 13.04,-2.46 17.92,-6.51 3.03,-2.5 5.52,-5.66 7.23,-9.23 l 0,-0.04 -50.3,0 0,0.07 z m 202.46,-11.82 c -5.65,4.58 -14.1,7.28 -23.79,9.43 l -1.13,0.23 c -2.34,0.51 -4.71,0.97 -7.16,1.43 -5.46,1.12 -10.56,1.65 -14.57,2.62 -4.63,1.11 -7.74,2.77 -8.02,6.32 -0.35,9.97 16.05,12.7 23.95,4.15 0.62,-0.65 1.17,-1.34 1.68,-2.15 l 3.11,0 29.67,-0.04 0,0.12 c -2.07,8.77 -6.47,14.75 -11.68,18.87 -2.27,1.69 -4.6,3.15 -7.01,4.23 l -0.2,0.11 c -2.11,0.97 -4.25,1.7 -6.38,2.31 l -0.24,0.12 c -0.16,0.04 -0.35,0.08 -0.51,0.12 -0.65,0.19 -1.35,0.38 -2.06,0.5 -0.11,0.04 -0.23,0.07 -0.35,0.11 -0.58,0.08 -1.08,0.24 -1.67,0.31 -0.39,0.07 -0.82,0.15 -1.21,0.23 l -0.04,0 c -5.52,0.93 -10.12,0.85 -11.79,0.85 -17.44,0 -26.98,-3.54 -34.27,-8.82 l -0.04,0 c -11.75,9.13 -27.67,8.82 -31.26,8.82 -20.79,0 -30.36,-5.05 -38.2,-12.06 2.47,-1.5 4.76,-3.23 6.9,-5.11 0.62,-0.55 1.21,-1.09 1.79,-1.66 0.03,0 0.07,-0.04 0.07,-0.08 1.84,-1.77 3.59,-3.74 5.11,-5.82 0.04,0 0.04,-0.03 0.04,-0.03 0.5,-0.66 0.97,-1.32 1.44,-1.97 0.07,-0.18 0.19,-0.34 0.31,-0.54 0.31,-0.49 0.7,-1.03 1.01,-1.58 0.12,-0.22 0.28,-0.5 0.39,-0.69 0.32,-0.5 0.59,-1 0.85,-1.49 0.16,-0.28 0.28,-0.55 0.43,-0.85 0.24,-0.47 0.47,-0.89 0.71,-1.39 0.15,-0.31 0.27,-0.62 0.43,-0.93 0.19,-0.46 0.39,-0.93 0.58,-1.38 0.16,-0.32 0.28,-0.66 0.39,-1 0.2,-0.47 0.34,-0.89 0.54,-1.36 0.12,-0.34 0.19,-0.73 0.35,-1.03 0.12,-0.47 0.27,-0.93 0.43,-1.43 0.12,-0.34 0.2,-0.69 0.31,-1.04 0.12,-0.46 0.28,-0.96 0.35,-1.43 0.08,-0.34 0.16,-0.73 0.24,-1.07 0.12,-0.5 0.19,-0.96 0.31,-1.47 0.08,-0.39 0.11,-0.73 0.2,-1.11 0.07,-0.51 0.11,-1 0.23,-1.5 0.04,-0.35 0.07,-0.73 0.11,-1.08 0.04,-0.58 0.09,-1.16 0.13,-1.73 0.03,-0.28 0.03,-0.58 0.07,-0.89 0.03,-0.89 0.07,-1.74 0.07,-2.62 l 0,-0.08 c 0,-0.57 -0.04,-1.15 -0.07,-1.73 0,-0.11 0,-0.27 -0.04,-0.38 14.17,-2.82 25.54,-3.78 27.91,-8.52 0.35,-0.65 0.55,-1.42 0.51,-2.19 -0.2,-5.81 -5.14,-8.94 -11.83,-8.9 -2.38,0 -4.41,0.16 -6.12,0.5 -3.03,0.63 -5.17,1.86 -7.13,3.97 -1.04,1.2 -2.02,2.66 -2.99,4.47 l -36.49,0 c -5.09,-6.28 -12.91,-10.28 -21.72,-10.28 -3.65,0 -7.16,0.69 -10.35,2 -7.48,2.96 -13.4,9.01 -15.97,16.56 l 0,0.11 75.92,0 c 0.28,1.35 0.47,2.73 0.55,4.12 0.2,1.58 0.27,3.16 0.27,4.77 l 0,0.05 c 0,0.84 -0.04,1.77 -0.07,2.62 0,0.3 -0.04,0.62 -0.08,0.92 -0.04,0.53 -0.08,1.16 -0.16,1.7 0,0.35 -0.04,0.73 -0.12,1.07 -0.07,0.51 -0.11,1.01 -0.23,1.5 -0.04,0.39 -0.12,0.74 -0.2,1.13 -0.07,0.49 -0.15,0.95 -0.27,1.45 -0.08,0.35 -0.19,0.7 -0.27,1.08 -0.08,0.46 -0.19,0.93 -0.32,1.43 -0.11,0.35 -0.23,0.69 -0.3,1.07 -0.15,0.47 -0.31,0.93 -0.47,1.35 -0.07,0.39 -0.23,0.74 -0.35,1.08 -0.15,0.46 -0.35,0.92 -0.51,1.35 -0.11,0.34 -0.23,0.69 -0.39,1 -0.15,0.47 -0.39,0.92 -0.58,1.39 -0.16,0.35 -0.31,0.62 -0.43,0.92 -0.24,0.51 -0.46,0.97 -0.7,1.43 -0.15,0.27 -0.31,0.53 -0.42,0.85 -0.28,0.45 -0.55,0.96 -0.83,1.42 -0.15,0.27 -0.27,0.5 -0.43,0.73 -0.3,0.58 -0.66,1.08 -1,1.62 -0.13,0.15 -0.23,0.31 -0.35,0.5 -0.43,0.66 -0.9,1.31 -1.41,1.96 l -0.04,0.04 c -1.55,2.08 -3.27,4.04 -5.06,5.82 -0.07,0.04 -0.11,0.07 -0.11,0.11 -0.59,0.55 -1.21,1.12 -1.8,1.62 -1.28,1.16 -2.6,2.2 -4,3.2 -8.3,5.93 -18.5,9.43 -29.52,9.43 -27.87,0 -50.42,-22.3 -50.42,-49.84 0,-19.74 11.6,-36.85 28.43,-44.85 6.65,-3.24 14.09,-5.01 21.99,-5.01 13.28,0 25.39,5.08 34.38,13.4 0.27,0.23 0.51,0.46 0.74,0.73 0.82,0.74 1.6,1.55 2.34,2.35 0.03,0.04 0.07,0.08 0.11,0.11 0.78,0.89 1.52,1.78 2.3,2.74 0.15,0.19 0.31,0.47 0.47,0.65 0.54,0.7 1.05,1.43 1.56,2.16 0.23,0.31 0.43,0.65 0.62,0.97 0.42,0.65 0.85,1.34 1.24,2 0.2,0.39 0.39,0.73 0.59,1.07 0.35,0.62 0.7,1.28 1.01,1.93 l 9.5,0 c -0.43,-1.12 -0.89,-2.19 -1.36,-3.23 -0.16,-0.35 -0.31,-0.66 -0.51,-0.96 -0.31,-0.77 -0.7,-1.51 -1.09,-2.2 -0.2,-0.39 -0.38,-0.69 -0.63,-1.08 -0.38,-0.69 -0.77,-1.35 -1.2,-2 -0.19,-0.35 -0.43,-0.7 -0.62,-0.96 -0.51,-0.73 -1.02,-1.47 -1.59,-2.16 -0.16,-0.23 -0.32,-0.47 -0.47,-0.69 -0.75,-0.93 -1.49,-1.82 -2.3,-2.7 -0.04,-0.04 -0.04,-0.07 -0.08,-0.15 -0.78,-0.81 -1.52,-1.58 -2.34,-2.32 -0.22,-0.27 -0.51,-0.49 -0.73,-0.69 -0.71,-0.65 -1.41,-1.31 -2.15,-1.88 1.21,-0.77 2.62,-1.47 4.09,-2.08 6.5,-2.93 15.54,-4.97 27.72,-4.97 l 0.04,0 c 2.14,0 19.42,-0.2 32.51,8.09 1.64,1.04 3.23,2.19 4.71,3.5 0.16,0.15 0.36,0.31 0.47,0.46 0.66,0.62 1.28,1.23 1.87,1.89 0.12,0.12 0.2,0.19 0.27,0.27 0.66,0.73 1.28,1.54 1.87,2.34 0.15,0.24 0.27,0.39 0.39,0.62 0.43,0.65 0.9,1.39 1.33,2.12 0.1,0.23 0.23,0.43 0.34,0.65 0.51,0.93 0.94,1.86 1.33,2.85 0.08,0.24 0.15,0.47 0.19,0.66 0.31,0.81 0.59,1.66 0.82,2.55 0.12,0.34 0.23,0.69 0.28,1.03 0.27,1.01 0.49,2.08 0.61,3.16 0.04,0.11 0.08,0.19 0.08,0.31 l 0,0.15 c 0.74,6.16 -0.38,10.97 -2.92,14.75 -0.27,0.38 -0.5,0.77 -0.82,1.15 -0.26,0.39 -0.62,0.74 -0.97,1.12 -0.31,0.35 -0.62,0.74 -0.97,1.04 -0.39,0.35 -0.79,0.69 -1.17,1.01 -0.03,0.08 -0.07,0.1 -0.11,0.15 0.31,-0.15 0.61,-0.31 0.96,-0.43 0.51,-0.27 0.98,-0.49 1.45,-0.77 0.5,-0.26 1,-0.49 1.47,-0.81 0.43,-0.22 0.86,-0.53 1.33,-0.81 0.43,-0.3 0.86,-0.57 1.28,-0.88 0.43,-0.31 0.82,-0.61 1.17,-0.92 0.43,-0.35 0.78,-0.66 1.13,-1.04 0.2,-0.15 0.39,-0.35 0.55,-0.55 0,-0.03 0.07,-0.03 0.07,-0.03 8.42,-1.73 15.97,-2.78 21.49,-4.16 l 1.6,-0.46 c 3.67,-1.08 6.19,-2.39 7.17,-4.36 0.3,-0.65 0.46,-1.38 0.42,-2.15 -0.19,-5.85 -5.1,-9.01 -11.83,-8.94 -2.38,0 -4.36,0.2 -6.08,0.51 -3.03,0.62 -5.21,1.85 -7.09,3.97 -0.14,0.15 -0.3,0.3 -0.42,0.49 -0.07,-0.77 -0.07,-1.5 -0.15,-2.35 l 0,-0.15 c -0.04,-0.11 -0.08,-0.23 -0.08,-0.35 -0.16,-1.08 -0.35,-2.12 -0.63,-3.11 -0.07,-0.35 -0.15,-0.7 -0.27,-1.05 -0.23,-0.88 -0.51,-1.72 -0.82,-2.53 -0.07,-0.24 -0.16,-0.43 -0.18,-0.66 -0.43,-1 -0.86,-1.96 -1.33,-2.85 -0.16,-0.23 -0.28,-0.47 -0.39,-0.65 -0.39,-0.74 -0.86,-1.47 -1.28,-2.16 -0.16,-0.2 -0.32,-0.39 -0.43,-0.58 -0.59,-0.81 -1.17,-1.62 -1.88,-2.35 -0.08,-0.08 -0.15,-0.19 -0.23,-0.27 -0.59,-0.66 -1.24,-1.27 -1.87,-1.89 -0.15,-0.15 -0.31,-0.26 -0.5,-0.42 -1.32,-1.23 -2.77,-2.35 -4.29,-3.32 3.5,-1.3 7.6,-2.38 12.38,-3.03 l 3.9,-0.43 c 2.6,-0.19 5.84,-0.38 8.87,-0.38 l 0.08,0 c 3.23,-0.04 42.75,-0.43 46.95,30.46 1.17,9.01 -1.63,15.1 -6.96,19.41"
             style="fill:#ffffff;fill-opacity:1;fill-rule:nonzero;stroke:none"
             id="path3438"
             inkscape:connector-curvature="0" /></g></g><g
         id="g3442"
         transform="scale(10,10)"><text
           transform="matrix(1,0,0,-1,72.6211,191.082)"
           style="font-variant:normal;font-weight:normal;font-size:11.95510006px;font-family:CMSSBX10;-inkscape-font-specification:CMSSBX10;writing-mode:lr-tb;fill:#ffffff;fill-opacity:1;fill-rule:nonzero;stroke:none"
           id="text3444"><tspan
             x="0 11.690948 17.666924 22.7069 28.817871 31.868864 40.27483 46.547802 53.252781 64.349731 74.708687 85.076599 93.608597 99.818733 104.26471 115.00148 121.11245 127.08842 134.16232 140.27332 144.71928 147.77028 153.88124 160.58623 166.4272 172.53818 180.58403 186.85698 193.56197 204.65892 207.7099 212.54289"
             y="0"
             sodipodi:role="line"
             id="tspan3446">Myselfandmyworkexperience,andits</tspan><tspan
             x="-32.787102 -26.946123 -20.367149 -10.008199 -2.9340982 3.1768744 8.0098534 14.120827 20.8258 26.666773 32.77776 44.468708 50.444683 55.484665 61.595638 64.646629 73.061691 79.334663 86.039642 97.136597 107.49554 117.86346 126.39546 132.60559 137.05156 147.77936 153.89034 159.8663 166.94022 173.05121 177.49719 180.54817 186.65913 193.36412 199.20509 205.31607 213.37091 219.64388 226.34885 237.4458 240.4968 245.32977"
             y="13.95"
             sodipodi:role="line"
             id="tspan3448">competenceMyselfandmyworkexperience,andits</tspan><tspan
             x="76.013901 81.854874 88.433838 98.792793 105.8669 111.97787 116.81084 122.92181 129.6268 135.46777"
             y="27.9"
             sodipodi:role="line"
             id="tspan3450">competence</tspan></text>
</g><g
         id="g3454"
         transform="scale(10,10)"><text
           transform="matrix(1,0,0,-1,149.211,124.257)"
           style="font-variant:normal;font-weight:normal;font-size:8.96638012px;font-family:CMSSBX10;-inkscape-font-specification:CMSSBX10;writing-mode:lr-tb;fill:#ffffff;fill-opacity:1;fill-rule:nonzero;stroke:none"
           id="text3456"><tspan
             x="0 4.6619983 9.2429886 14.174998 19.205992 27.557816 34.67712 39.384472 47.709648 52.911648 58.662663"
             y="0"
             sodipodi:role="line"
             id="tspan3458">JeongHanLEE</tspan></text>
</g><g
         id="g3472"
         transform="scale(10,10)"><text
           transform="matrix(1,0,0,-1,119.493,54.3)"
           style="font-variant:normal;font-weight:normal;font-size:5.97758007px;font-family:CMTT8;-inkscape-font-specification:CMTT8;writing-mode:lr-tb;fill:#ffffff;fill-opacity:1;fill-rule:nonzero;stroke:none"
           id="text3474"><tspan
             x="0 3.1770003 6.3540006 9.5309887 12.707989 15.884989 19.061989 22.238989 25.415977 28.592978 31.769978 34.94698 38.123966 41.300968 44.477966 47.654968 50.831966 54.008957 57.185955 60.362957 63.539955 66.716957 69.893944 73.070946 76.247948 79.424942 82.601936 85.778931 88.955933 92.132935 95.309937 98.486931 101.66393 104.84093 108.01791 111.19491 114.37191 117.54891 120.72591"
             y="0"
             sodipodi:role="line"
             id="tspan3476">https://www.europeanspallationsource.se</tspan></text>
<text
           transform="matrix(1,0,0,-1,162.5578,47.325)"
           style="font-variant:normal;font-weight:normal;font-size:5.97758007px;font-family:CMSSBX10;-inkscape-font-specification:CMSSBX10;writing-mode:lr-tb;fill:#ffffff;fill-opacity:1;fill-rule:nonzero;stroke:none"
           id="text3478"><tspan
             x="0 5.8409991 8.8019457 13.97694 17.261936 20.546932 24.569897 27.854893 31.139889 34.424885"
             y="0"
             sodipodi:role="line"
             id="tspan3480">May27,2015</tspan></text>
</g></g></g></svg>