<?xml version="1.0" encoding="UTF-8" standalone="no"?>
<!-- Created with Inkscape (http://www.inkscape.org/) -->

<svg
   xmlns:dc="http://purl.org/dc/elements/1.1/"
   xmlns:cc="http://creativecommons.org/ns#"
   xmlns:rdf="http://www.w3.org/1999/02/22-rdf-syntax-ns#"
   xmlns:svg="http://www.w3.org/2000/svg"
   xmlns="http://www.w3.org/2000/svg"
   xmlns:sodipodi="http://sodipodi.sourceforge.net/DTD/sodipodi-0.dtd"
   xmlns:inkscape="http://www.inkscape.org/namespaces/inkscape"
   id="svg6180"
   version="1.1"
   inkscape:version="0.91 r13725"
   xml:space="preserve"
   width="128mm"
   height="96mm"
   viewBox="0 0 453.5433 340.1575"
   sodipodi:docname="ess_background.svg"><metadata
     id="metadata6186"><rdf:RDF><cc:Work
         rdf:about=""><dc:format>image/svg+xml</dc:format><dc:type
           rdf:resource="http://purl.org/dc/dcmitype/StillImage" /><dc:title></dc:title></cc:Work></rdf:RDF></metadata><defs
     id="defs6184"><clipPath
       clipPathUnits="userSpaceOnUse"
       id="clipPath6204"><path
         d="m 2834.64,2259.57 703,0 0,384.37 -703,0 0,-384.37 z"
         id="path6206"
         inkscape:connector-curvature="0" /></clipPath></defs><sodipodi:namedview
     pagecolor="#ffffff"
     bordercolor="#666666"
     borderopacity="1"
     objecttolerance="10"
     gridtolerance="10"
     guidetolerance="10"
     inkscape:pageopacity="0"
     inkscape:pageshadow="2"
     inkscape:window-width="1853"
     inkscape:window-height="1416"
     id="namedview6182"
     showgrid="false"
     inkscape:zoom="1.5027719"
     inkscape:cx="392.97006"
     inkscape:cy="59.068598"
     inkscape:window-x="388"
     inkscape:window-y="0"
     inkscape:window-maximized="0"
     inkscape:current-layer="g6190"
     units="mm"
     fit-margin-top="0"
     fit-margin-left="0"
     fit-margin-right="0"
     fit-margin-bottom="0"
     inkscape:showpageshadow="false"
     showborder="false" /><g
     id="g6188"
     inkscape:groupmode="layer"
     inkscape:label="ess-latex"
     transform="matrix(1.25,0,0,-1.25,0.24478998,335.02911)"><g
       id="g6190"
       transform="scale(0.1,0.1)"><g
         id="g6194"
         transform="scale(10,10)" /><g
         id="g6346"
         transform="scale(10,10)" /><rect
         style="fill:#029fe0;fill-opacity:1;stroke:#029fe0;stroke-width:0.9994334;stroke-opacity:1"
         id="rect6619"
         width="3627.3469"
         height="2720.2605"
         x="-1.4586031"
         y="-2679.7332"
         transform="scale(1,-1)" /><g
         id="g6200"
         transform="translate(0,-48.000006)"><g
           id="g6202"
           clip-path="url(#clipPath6204)"><path
             d="m 2834.64,2264.64 699.246,0 0,378.227 -699.246,0 0,-378.227 z"
             style="fill:#029fe0;fill-opacity:1;fill-rule:nonzero;stroke:none"
             id="path6208"
             inkscape:connector-curvature="0" /><path
             d="m 3242.21,2544.14 22.98,0 0,-5.94 -16.81,0 0,-9.65 13.61,0 0,-5.84 -13.61,0 0,-9.42 16.81,0 0,-5.95 -22.98,0 0,36.8"
             style="fill:#ffffff;fill-opacity:1;fill-rule:nonzero;stroke:none"
             id="path6210"
             inkscape:connector-curvature="0" /><path
             d="m 3284.66,2512.97 c 4.38,0 7.28,1.48 7.28,6.22 l 0,24.95 6.28,0 0,-24.95 c 0,-8.83 -4.72,-12.35 -13.56,-12.35 -8.72,0 -13.41,3.52 -13.41,12.35 l 0,24.95 6.29,0 0,-24.95 c 0,-4.78 2.86,-6.22 7.12,-6.22"
             style="fill:#ffffff;fill-opacity:1;fill-rule:nonzero;stroke:none"
             id="path6212"
             inkscape:connector-curvature="0" /><path
             d="m 3319.71,2538.2 -7.66,0 0,-12.35 7.79,0 c 4.3,0 5.9,2.55 5.9,6.32 0,4.05 -1.97,6.03 -6.03,6.03 z m -0.13,-18.32 -7.51,0 0,-12.54 -6.22,0 0,36.8 13.86,0 c 8.42,0 12.47,-3.45 12.47,-11.85 0,-5.55 -2.03,-8.73 -5.8,-10.59 l 5.8,-14.36 -6.87,0 -5.04,12.54 -0.69,0"
             style="fill:#ffffff;fill-opacity:1;fill-rule:nonzero;stroke:none"
             id="path6214"
             inkscape:connector-curvature="0" /><path
             d="m 3360.16,2525.47 c 0,8.58 -1.64,13.26 -8.4,13.26 -6.78,0 -8.42,-4.68 -8.42,-13.26 0,-8.57 1.6,-12.7 8.42,-12.7 6.79,0 8.4,4.03 8.4,12.7 z m -23.25,0 c 0,12.33 3.45,19.26 14.85,19.26 11.4,0 14.86,-6.93 14.86,-19.26 0,-12.44 -3.46,-18.72 -14.86,-18.72 -11.4,0 -14.85,6.37 -14.85,18.72"
             style="fill:#ffffff;fill-opacity:1;fill-rule:nonzero;stroke:none"
             id="path6216"
             inkscape:connector-curvature="0" /><path
             d="m 3386.33,2524.47 c 4.21,0 6.19,2.7 6.19,7.17 0,4.43 -1.98,6.5 -6.19,6.5 l -7.07,0 0,-13.67 7.07,0 z m -7.07,-6.01 0,-11.12 -6.22,0 0,36.8 13.35,0 c 8.36,0 12.5,-4.12 12.5,-12.5 0,-8.34 -4.14,-13.18 -12.5,-13.18 l -7.13,0"
             style="fill:#ffffff;fill-opacity:1;fill-rule:nonzero;stroke:none"
             id="path6218"
             inkscape:connector-curvature="0" /><path
             d="m 3404.8,2544.14 22.98,0 0,-5.94 -16.81,0 0,-9.65 13.61,0 0,-5.84 -13.61,0 0,-9.42 16.81,0 0,-5.95 -22.98,0 0,36.8"
             style="fill:#ffffff;fill-opacity:1;fill-rule:nonzero;stroke:none"
             id="path6220"
             inkscape:connector-curvature="0" /><path
             d="m 3440.98,2520.57 10.79,0 -4.07,17.84 -2.53,0 -4.19,-17.84 z m -0.63,23.57 12.28,0 8.67,-36.8 -6.28,0 -2.01,7.23 -13.38,0 -1.77,-7.23 -6.31,0 8.8,36.8"
             style="fill:#ffffff;fill-opacity:1;fill-rule:nonzero;stroke:none"
             id="path6222"
             inkscape:connector-curvature="0" /><path
             d="m 3466.62,2544.14 10.12,0 11.69,-29.04 0.91,0 0,29.04 6.28,0 0,-36.8 -9.83,0 -12.04,29.04 -0.9,0 0,-29.04 -6.23,0 0,36.8"
             style="fill:#ffffff;fill-opacity:1;fill-rule:nonzero;stroke:none"
             id="path6224"
             inkscape:connector-curvature="0" /><path
             d="m 3262.44,2474.62 c 0,0 -6.62,0.85 -9.7,0.85 -3.51,0 -5.65,-1.28 -5.65,-4.05 0,-3.2 1.45,-3.89 7.25,-6.01 6.58,-2.45 9.35,-4.32 9.35,-10.7 0,-7.67 -4.25,-11.18 -11.68,-11.18 -4.07,0 -11.24,1.4 -11.24,1.4 l 0.63,5.63 c 0,0 6.76,-0.91 10.55,-0.91 3.5,0 5.48,1.34 5.48,4.9 0,2.88 -1.29,3.67 -6.19,5.37 -7.98,2.93 -10.43,4.78 -10.43,11.4 0,6.96 4.86,10.25 11.93,10.25 4.09,0 10.16,-1.32 10.16,-1.32 l -0.46,-5.63"
             style="fill:#ffffff;fill-opacity:1;fill-rule:nonzero;stroke:none"
             id="path6226"
             inkscape:connector-curvature="0" /><path
             d="m 3283.76,2461.25 c 4.21,0 6.18,2.72 6.18,7.19 0,4.43 -1.97,6.5 -6.18,6.5 l -7.08,0 0,-13.69 7.08,0 z m -7.08,-6.01 0,-11.12 -6.23,0 0,36.82 13.35,0 c 8.36,0 12.5,-4.14 12.5,-12.5 0,-8.36 -4.14,-13.2 -12.5,-13.2 l -7.12,0"
             style="fill:#ffffff;fill-opacity:1;fill-rule:nonzero;stroke:none"
             id="path6228"
             inkscape:connector-curvature="0" /><path
             d="m 3306.7,2457.38 10.8,0 -4.11,17.81 -2.51,0 -4.18,-17.81 z m -0.66,23.56 12.29,0 8.69,-36.82 -6.28,0 -2.03,7.23 -13.36,0 -1.81,-7.23 -6.27,0 8.77,36.82"
             style="fill:#ffffff;fill-opacity:1;fill-rule:nonzero;stroke:none"
             id="path6230"
             inkscape:connector-curvature="0" /><path
             d="m 3332.34,2444.12 0,36.82 6.2,0 0,-30.82 14.29,0 0,-6 -20.49,0"
             style="fill:#ffffff;fill-opacity:1;fill-rule:nonzero;stroke:none"
             id="path6232"
             inkscape:connector-curvature="0" /><path
             d="m 3358.71,2444.12 0,36.82 6.23,0 0,-30.82 14.26,0 0,-6 -20.49,0"
             style="fill:#ffffff;fill-opacity:1;fill-rule:nonzero;stroke:none"
             id="path6234"
             inkscape:connector-curvature="0" /><path
             d="m 3391.65,2457.38 10.81,0 -4.1,17.81 -2.5,0 -4.21,-17.81 z m -0.63,23.56 12.28,0 8.67,-36.82 -6.28,0 -2.01,7.23 -13.36,0 -1.81,-7.23 -6.27,0 8.78,36.82"
             style="fill:#ffffff;fill-opacity:1;fill-rule:nonzero;stroke:none"
             id="path6236"
             inkscape:connector-curvature="0" /><path
             d="m 3412.77,2480.94 26.61,0 0,-6 -10.12,0 0,-30.82 -6.28,0 0,30.82 -10.21,0 0,6"
             style="fill:#ffffff;fill-opacity:1;fill-rule:nonzero;stroke:none"
             id="path6238"
             inkscape:connector-curvature="0" /><path
             d="m 3442.93,2444.12 6.2813,0 0,36.8242 -6.2813,0 0,-36.8242 z"
             style="fill:#ffffff;fill-opacity:1;fill-rule:nonzero;stroke:none"
             id="path6240"
             inkscape:connector-curvature="0" /><path
             d="m 3478.79,2462.25 c 0,8.58 -1.64,13.26 -8.4,13.26 -6.75,0 -8.41,-4.68 -8.41,-13.26 0,-8.55 1.6,-12.7 8.41,-12.7 6.82,0 8.4,4.05 8.4,12.7 z m -23.25,0 c 0,12.37 3.48,19.29 14.85,19.29 11.38,0 14.84,-6.92 14.84,-19.29 0,-12.44 -3.46,-18.72 -14.84,-18.72 -11.37,0 -14.85,6.4 -14.85,18.72"
             style="fill:#ffffff;fill-opacity:1;fill-rule:nonzero;stroke:none"
             id="path6242"
             inkscape:connector-curvature="0" /><path
             d="m 3491.67,2480.94 10.12,0 11.71,-29.06 0.89,0 0,29.06 6.29,0 0,-36.82 -9.84,0 -12.04,29.06 -0.9,0 0,-29.06 -6.23,0 0,36.82"
             style="fill:#ffffff;fill-opacity:1;fill-rule:nonzero;stroke:none"
             id="path6244"
             inkscape:connector-curvature="0" /><path
             d="m 3262.44,2411.4 c 0,0 -6.62,0.87 -9.7,0.87 -3.51,0 -5.65,-1.28 -5.65,-4.07 0,-3.18 1.45,-3.87 7.25,-6 6.58,-2.43 9.35,-4.31 9.35,-10.69 0,-7.67 -4.25,-11.18 -11.68,-11.18 -4.07,0 -11.24,1.4 -11.24,1.4 l 0.63,5.63 c 0,0 6.76,-0.91 10.55,-0.91 3.5,0 5.48,1.32 5.48,4.9 0,2.86 -1.29,3.67 -6.19,5.37 -7.98,2.93 -10.43,4.78 -10.43,11.39 0,6.97 4.86,10.27 11.93,10.27 4.09,0 10.16,-1.33 10.16,-1.33 l -0.46,-5.65"
             style="fill:#ffffff;fill-opacity:1;fill-rule:nonzero;stroke:none"
             id="path6246"
             inkscape:connector-curvature="0" /><path
             d="m 3291.94,2399.05 c 0,8.58 -1.64,13.26 -8.4,13.26 -6.75,0 -8.39,-4.68 -8.39,-13.26 0,-8.55 1.58,-12.7 8.39,-12.7 6.82,0 8.4,4.03 8.4,12.7 z m -23.24,0 c 0,12.35 3.46,19.27 14.84,19.27 11.38,0 14.84,-6.92 14.84,-19.27 0,-12.44 -3.46,-18.72 -14.84,-18.72 -11.38,0 -14.84,6.4 -14.84,18.72"
             style="fill:#ffffff;fill-opacity:1;fill-rule:nonzero;stroke:none"
             id="path6248"
             inkscape:connector-curvature="0" /><path
             d="m 3317.64,2386.55 c 4.36,0 7.29,1.5 7.29,6.24 l 0,24.95 6.28,0 0,-24.95 c 0,-8.83 -4.74,-12.34 -13.57,-12.34 -8.71,0 -13.41,3.51 -13.41,12.34 l 0,24.95 6.28,0 0,-24.95 c 0,-4.8 2.88,-6.24 7.13,-6.24"
             style="fill:#ffffff;fill-opacity:1;fill-rule:nonzero;stroke:none"
             id="path6250"
             inkscape:connector-curvature="0" /><path
             d="m 3352.71,2411.78 -7.67,0 0,-12.35 7.79,0 c 4.28,0 5.88,2.57 5.88,6.34 0,4.05 -1.95,6.01 -6,6.01 z m -0.16,-18.3 -7.51,0 0,-12.56 -6.22,0 0,36.82 13.89,0 c 8.41,0 12.45,-3.45 12.45,-11.87 0,-5.53 -2,-8.73 -5.82,-10.59 l 5.82,-14.36 -6.86,0 -5.06,12.56 -0.69,0"
             style="fill:#ffffff;fill-opacity:1;fill-rule:nonzero;stroke:none"
             id="path6252"
             inkscape:connector-curvature="0" /><path
             d="m 3394,2381.65 c 0,0 -6.23,-1.32 -10.43,-1.32 -11.12,0 -13.68,6.4 -13.68,18.96 0,13.4 3.25,19.03 13.68,19.03 4.62,0 10.47,-1.44 10.47,-1.44 l -0.2,-5.48 c 0,0 -6.22,0.79 -9.43,0.79 -6.43,0 -8.09,-3.08 -8.09,-12.9 0,-9.38 1.28,-12.84 8.31,-12.84 2.87,0 9.21,0.85 9.21,0.85 l 0.16,-5.65"
             style="fill:#ffffff;fill-opacity:1;fill-rule:nonzero;stroke:none"
             id="path6254"
             inkscape:connector-curvature="0" /><path
             d="m 3400.12,2417.74 22.98,0 0,-5.96 -16.81,0 0,-9.64 13.63,0 0,-5.85 -13.63,0 0,-9.4 16.81,0 0,-5.97 -22.98,0 0,36.82"
             style="fill:#ffffff;fill-opacity:1;fill-rule:nonzero;stroke:none"
             id="path6256"
             inkscape:connector-curvature="0" /><path
             d="m 2962.92,2347.47 c 11.34,-5.24 23.61,-8.87 36.51,-10.51 5.25,-0.67 10.55,-1.05 15.94,-1.05 -5.39,0 -10.69,0.38 -15.96,1.07 -12.88,1.66 -25.13,5.25 -36.49,10.49"
             style="fill:#029fe0;fill-opacity:1;fill-rule:nonzero;stroke:none"
             id="path6258"
             inkscape:connector-curvature="0" /><path
             d="m 2979.85,2328.6 c -10.96,4.39 -21.55,9.96 -31.35,16.5 0,0.02 -0.04,0.04 -0.08,0.06 -0.06,0.02 -0.12,0.08 -0.2,0.1 -4.92,2.88 -9.66,6.03 -14.17,9.46 -13.74,10.49 -25.4,23.57 -34.23,38.51 -4.44,7.54 -7.9,15.64 -10.83,24.04 -4.84,13.81 -7.74,28.53 -7.74,43.98 0,6.18 0.45,12.27 1.29,18.23 0.17,1.34 0.55,2.63 0.78,3.99 0.75,4.49 1.59,8.97 2.77,13.3 0.53,1.97 1.3,3.83 1.94,5.79 1.14,3.57 2.29,7.15 3.75,10.59 0.91,2.17 2.03,4.23 3.06,6.33 0.97,2.02 1.84,4.1 2.91,6.04 -2.36,-2.93 -4.86,-5.76 -7,-8.84 -0.25,-0.37 -0.47,-0.75 -0.73,-1.11 -3.42,-5.01 -6.54,-10.21 -9.36,-15.54 -0.38,-0.67 -0.78,-1.33 -1.11,-2.02 -2.78,-5.41 -5.21,-11 -7.37,-16.71 -0.37,-0.99 -0.75,-1.98 -1.13,-2.98 -2.03,-5.75 -3.77,-11.58 -5.15,-17.53 -0.2,-0.83 -0.34,-1.68 -0.52,-2.53 -1.34,-6.24 -2.4,-12.58 -3,-19 l -0.04,-0.3 c -0.38,-4.58 -0.61,-9.14 -0.61,-13.83 0,-13.55 1.74,-27.34 5.41,-41.07 4.86,-17.98 12.61,-34.4 22.64,-48.94 5.73,-8.29 12.21,-16 19.42,-23.11 9.66,-10.23 20.97,-18.73 33.35,-25.17 17.38,-8.99 36.91,-13.91 57.06,-13.91 10.65,0 21.47,1.36 32.26,4.25 29.69,7.94 53.91,25.98 70.09,49.43 -2.07,-0.75 -4.21,-1.32 -6.3,-2 -1.84,-0.59 -3.67,-1.2 -5.53,-1.74 -3.52,-1 -7.09,-1.83 -10.69,-2.58 -1.48,-0.34 -2.94,-0.72 -4.44,-1.01 -4.17,-0.77 -8.4,-1.32 -12.61,-1.8 -0.96,-0.09 -1.92,-0.3 -2.86,-0.35 -5.28,-0.52 -10.55,-0.79 -15.85,-0.79 -21.63,0 -43.34,4.11 -63.85,12.26 l 0.02,0 z"
             style="fill:none;stroke:#ffffff;stroke-width:2.53083992;stroke-linecap:round;stroke-linejoin:round;stroke-miterlimit:4;stroke-dasharray:none;stroke-opacity:1"
             id="path6260"
             inkscape:connector-curvature="0" /><path
             d="m 3136.73,2537.88 c 8.46,-20.52 13.05,-42.85 13.05,-65.81 0,-1.38 -0.08,-2.66 -0.13,-4.03 -0.04,-2.21 -0.06,-4.42 -0.17,-6.66 l 0,-0.11 c 0,-23.95 -6.32,-46.45 -17.35,-65.91 -0.81,-1.42 -1.79,-2.73 -2.65,-4.11 -20.74,-33.72 -55.89,-57.66 -97.06,-62.92 -1.16,-0.14 -2.41,-0.12 -3.59,-0.24 -3.7,-0.37 -7.43,-0.73 -11.24,-0.81 2.21,-0.36 4.4,-0.67 6.61,-0.93 1.72,-0.19 3.42,-0.49 5.14,-0.65 4.07,-0.35 8.12,-0.53 12.21,-0.57 0.71,-0.02 1.44,-0.1 2.17,-0.1 15.89,0 31.73,2.39 47,7.03 4.47,1.36 8.92,2.89 13.28,4.65 1.75,0.7 3.54,1.48 5.32,2.25 0.5,0.25 1.02,0.45 1.53,0.69 16.54,7.63 32.07,18.23 45.66,31.89 20.74,20.7 34.49,45.71 41.43,72.4 3.49,11.68 5.21,23.77 5.21,35.84 0,1.85 -0.05,3.73 -0.11,5.61 -1.37,29.91 -13.42,59.38 -36.27,82.24 -7.31,7.27 -15.28,13.46 -23.72,18.55 -16.79,10.14 -35.46,15.94 -54.4,17.43 0.12,-0.12 0.24,-0.22 0.35,-0.34 3.89,-3.28 7.67,-6.69 11.25,-10.31 15.62,-15.76 27.99,-34.51 36.48,-55.08 z"
             style="fill:none;stroke:#ffffff;stroke-width:2.53083992;stroke-linecap:round;stroke-linejoin:round;stroke-miterlimit:4;stroke-dasharray:none;stroke-opacity:1"
             id="path6262"
             inkscape:connector-curvature="0" /><path
             d="m 2998.3,2594.21 c 0.63,0.08 1.29,0.06 1.9,0.13 4.62,0.52 9.28,0.91 14.01,0.95 0.25,0 0.63,0.02 1.16,0.02 5.14,0 10.16,-0.41 15.12,-0.97 0.65,-0.07 1.32,-0.05 1.95,-0.13 0.08,0 0.14,-0.03 0.2,-0.05 4.66,-0.59 9.23,-1.48 13.73,-2.56 1.48,-0.34 2.92,-0.77 4.38,-1.19 3.13,-0.83 6.19,-1.76 9.21,-2.84 1.56,-0.53 3.1,-1.13 4.65,-1.72 3.01,-1.21 5.98,-2.51 8.9,-3.94 1.25,-0.61 2.53,-1.14 3.76,-1.79 4.03,-2.09 7.98,-4.37 11.75,-6.84 0.62,-0.43 1.21,-0.91 1.82,-1.32 3.16,-2.17 6.25,-4.44 9.21,-6.87 1.14,-0.93 2.23,-1.9 3.34,-2.87 2.43,-2.11 4.78,-4.31 7.03,-6.58 1.04,-1.05 2.08,-2.07 3.08,-3.16 2.47,-2.63 4.82,-5.39 7.05,-8.24 0.59,-0.75 1.23,-1.44 1.81,-2.19 2.74,-3.64 5.32,-7.39 7.69,-11.3 -0.17,0.47 -0.33,0.96 -0.5,1.42 -1.17,2.98 -2.52,5.88 -3.88,8.79 -0.95,2.08 -1.85,4.19 -2.9,6.2 -1.5,2.89 -3.16,5.7 -4.84,8.48 -1.13,1.92 -2.2,3.88 -3.4,5.73 -1.86,2.86 -3.92,5.55 -5.93,8.27 -1.26,1.67 -2.39,3.43 -3.71,5.05 -2.61,3.24 -5.46,6.3 -8.3,9.32 -0.89,0.93 -1.66,1.94 -2.55,2.83 -4.13,4.16 -8.57,8.04 -13.15,11.73 -2.61,2.09 -5.22,4.21 -7.97,6.14 -14.85,10.54 -31.79,18.66 -50.4,23.61 -13.7,3.68 -27.48,5.46 -41.07,5.46 -14.38,0 -28.61,-2 -42.34,-5.79 -13.69,-3.26 -26.73,-8.79 -38.48,-16.34 -10.43,-6.68 -19.92,-14.94 -28.01,-24.56 -11.42,-13.53 -20.16,-29.71 -25.02,-47.93 -2.9,-10.78 -4.28,-21.59 -4.28,-32.2 0,-18.79 4.3,-37.02 12.19,-53.51 0.26,1.51 0.74,2.96 1.04,4.48 0.61,3.02 1.35,6 2.12,9.01 1.01,3.81 2.09,7.6 3.36,11.34 0.98,2.94 2.03,5.84 3.18,8.73 1.48,3.67 3.06,7.27 4.78,10.82 1.32,2.75 2.65,5.47 4.13,8.15 1.95,3.57 4.09,7.03 6.3,10.47 1.58,2.43 3.12,4.87 4.82,7.25 2.53,3.51 5.28,6.85 8.06,10.19 1.74,2.03 3.36,4.13 5.18,6.1 3.24,3.5 6.73,6.76 10.25,10 1.7,1.56 3.28,3.21 5.04,4.68 4.24,3.6 8.77,6.88 13.37,10.06 1.33,0.93 2.53,1.96 3.88,2.82 6.06,3.96 12.38,7.59 19,10.79 14.64,8.16 30.96,13.67 48.28,15.87 z"
             style="fill:none;stroke:#ffffff;stroke-width:2.53083992;stroke-linecap:round;stroke-linejoin:round;stroke-miterlimit:4;stroke-dasharray:none;stroke-opacity:1"
             id="path6264"
             inkscape:connector-curvature="0" /><path
             d="m 3140.76,2461.64 c -0.09,34.83 -14.47,66.25 -37.49,88.9 -19.07,18.75 -44.04,31.5 -71.93,35.05 -5.24,0.68 -10.55,1.03 -15.97,1.03 -0.2,0 -0.49,0 -1.03,-0.02 -5.07,-0.06 -10.03,-0.4 -14.93,-1.03 -16.16,-2.03 -31.33,-7.15 -45.22,-14.89 -38.33,-21.46 -64.23,-62.37 -64.23,-109.43 0,-9.94 1.4,-19.54 3.58,-28.82 2.94,-12.38 7.48,-24.11 13.76,-34.78 3.27,-5.51 7.06,-10.65 11.09,-15.58 9.6,-11.68 21.18,-21.71 34.5,-29.45 3.25,-1.87 6.61,-3.57 10.03,-5.15 11.36,-5.23 23.61,-8.83 36.49,-10.49 5.27,-0.69 10.57,-1.06 15.96,-1.06 5.42,0 10.71,0.37 15.99,1.06 20.01,2.53 38.56,9.8 54.46,20.63 15.91,10.8 29.2,25.21 38.72,42.01 10.32,18.24 16.25,39.2 16.25,61.5 l 0,0.26 -0.05,0.26 0.02,0 z"
             style="fill:none;stroke:#ffffff;stroke-width:2.53083992;stroke-linecap:round;stroke-linejoin:round;stroke-miterlimit:4;stroke-dasharray:none;stroke-opacity:1"
             id="path6266"
             inkscape:connector-curvature="0" /><path
             d="m 3071.19,2476.89 -31.54,0.02 c -0.26,-3.81 0.72,-7.35 2.69,-9.82 0.21,-0.05 0.41,-0.12 0.61,-0.17 -4.72,1.32 -9.88,2.4 -15.29,3.47 -5.47,1.09 -10.61,1.66 -14.62,2.63 -4.66,1.14 -7.78,2.8 -8.02,6.4 -0.4,10.12 16.02,12.9 23.99,4.25 0.61,-0.67 1.2,-1.4 1.72,-2.21 l 3.07,0 29.81,-0.02 0,0.11 c -0.25,1.03 -0.52,2 -0.84,2.95 -0.08,0.3 -0.18,0.59 -0.3,0.91 -0.2,0.63 -0.43,1.24 -0.67,1.84 -0.16,0.31 -0.28,0.65 -0.39,0.96 -0.26,0.58 -0.54,1.11 -0.79,1.67 -0.17,0.25 -0.28,0.53 -0.44,0.8 -0.34,0.7 -0.71,1.31 -1.11,1.92 -0.08,0.11 -0.13,0.24 -0.21,0.35 -0.48,0.74 -0.97,1.43 -1.47,2.08 -0.11,0.16 -0.27,0.34 -0.39,0.49 -0.39,0.48 -0.79,0.97 -1.2,1.43 -0.17,0.19 -0.36,0.37 -0.54,0.57 -0.39,0.42 -0.79,0.81 -1.18,1.23 -0.2,0.15 -0.38,0.33 -0.56,0.48 -0.47,0.4 -0.95,0.82 -1.4,1.22 -0.1,0.07 -0.22,0.15 -0.3,0.25 l 0.06,-0.02 c 2.71,-1.23 5.34,-2.8 7.83,-4.8 0.45,-0.36 0.91,-0.75 1.36,-1.18 0.2,-0.16 0.38,-0.34 0.55,-0.52 0.42,-0.38 0.81,-0.77 1.18,-1.18 0.2,-0.2 0.38,-0.38 0.56,-0.58 0.42,-0.47 0.81,-0.95 1.21,-1.44 0.11,-0.18 0.25,-0.32 0.39,-0.5 0.5,-0.62 0.99,-1.34 1.48,-2.07 0.06,-0.12 0.14,-0.23 0.22,-0.34 0.38,-0.63 0.73,-1.26 1.11,-1.91 0.13,-0.28 0.27,-0.55 0.39,-0.81 0.28,-0.55 0.53,-1.12 0.79,-1.68 0.14,-0.31 0.26,-0.62 0.42,-0.95 0.23,-0.61 0.45,-1.22 0.69,-1.85 0.07,-0.3 0.19,-0.6 0.29,-0.91 0.3,-0.96 0.58,-1.92 0.84,-2.95 l 0,-0.12 z m -148.65,-5.82 c 4.46,9.42 14.08,15.94 25.23,15.94 6.85,0 13.1,-2.49 17.98,-6.58 3.05,-2.57 5.53,-5.75 7.27,-9.39 l 0,-0.04 -50.48,0 0,0.07 z m 203.11,-11.98 c -5.65,4.65 -14.13,7.37 -23.85,9.56 l -1.14,0.24 c -2.33,0.52 -4.72,0.99 -7.19,1.46 -5.47,1.11 -10.59,1.68 -14.6,2.65 -4.66,1.14 -7.78,2.81 -8.04,6.39 -0.38,10.13 16.06,12.89 24,4.22 0.63,-0.65 1.19,-1.36 1.7,-2.17 l 3.11,0 29.76,-0.04 0,0.12 c -2.07,8.89 -6.47,14.95 -11.71,19.12 -2.25,1.74 -4.62,3.2 -7.05,4.32 l -0.18,0.09 c -2.12,0.98 -4.27,1.74 -6.39,2.37 l -0.25,0.1 c -0.14,0.03 -0.34,0.08 -0.49,0.12 -0.67,0.19 -1.4,0.37 -2.08,0.51 -0.12,0.04 -0.25,0.08 -0.37,0.1 -0.56,0.11 -1.09,0.23 -1.65,0.33 -0.41,0.08 -0.84,0.14 -1.22,0.22 l -0.04,0 c -5.57,0.95 -10.15,0.87 -11.85,0.87 -17.48,0 -27.07,-3.58 -34.35,-8.95 l -0.04,0 c -11.8,9.28 -27.8,8.95 -31.38,8.95 -20.86,0 -30.48,-5.1 -38.34,-12.23 2.46,-1.52 4.79,-3.26 6.93,-5.19 0.63,-0.56 1.2,-1.11 1.79,-1.67 0.05,-0.01 0.07,-0.05 0.09,-0.1 1.85,-1.79 3.57,-3.77 5.11,-5.88 0.04,-0.02 0.04,-0.06 0.06,-0.06 0.49,-0.65 0.95,-1.33 1.41,-1.99 0.09,-0.19 0.23,-0.34 0.31,-0.52 0.35,-0.53 0.71,-1.07 1.03,-1.62 0.14,-0.24 0.28,-0.5 0.41,-0.71 0.3,-0.51 0.58,-1.01 0.85,-1.5 0.14,-0.28 0.28,-0.58 0.41,-0.87 0.26,-0.46 0.48,-0.91 0.72,-1.4 0.14,-0.32 0.28,-0.64 0.43,-0.96 0.2,-0.45 0.4,-0.92 0.6,-1.38 0.12,-0.33 0.25,-0.67 0.39,-1.02 0.18,-0.46 0.34,-0.91 0.52,-1.39 0.11,-0.33 0.22,-0.73 0.35,-1.06 0.13,-0.46 0.28,-0.93 0.44,-1.41 0.11,-0.35 0.21,-0.71 0.31,-1.09 0.12,-0.46 0.26,-0.94 0.34,-1.42 0.1,-0.37 0.19,-0.74 0.26,-1.12 0.11,-0.49 0.19,-0.97 0.29,-1.46 0.08,-0.38 0.14,-0.75 0.2,-1.13 0.08,-0.51 0.14,-1.03 0.23,-1.54 0.05,-0.35 0.1,-0.73 0.12,-1.09 0.06,-0.57 0.1,-1.16 0.14,-1.74 0.04,-0.29 0.04,-0.61 0.06,-0.9 0.06,-0.91 0.08,-1.76 0.08,-2.67 l 0,-0.06 c 0,-0.61 -0.04,-1.19 -0.08,-1.78 0,-0.12 0,-0.26 -0.04,-0.39 14.22,-2.85 25.64,-3.84 28.02,-8.64 0.33,-0.67 0.53,-1.42 0.49,-2.23 -0.19,-5.88 -5.16,-9.06 -11.87,-8.99 -2.39,0 -4.39,0.14 -6.13,0.48 -3.04,0.63 -5.21,1.87 -7.13,4.03 -1.07,1.2 -2.03,2.7 -3.04,4.54 l -36.59,0 c -5.12,-6.38 -12.96,-10.45 -21.79,-10.45 -3.68,0 -7.19,0.73 -10.41,2.03 -7.49,3.01 -13.4,9.15 -16,16.82 l 0,0.12 76.19,0 c 0.26,1.36 0.44,2.76 0.55,4.18 0.17,1.59 0.24,3.18 0.24,4.82 l 0,0.06 c 0,0.87 -0.03,1.78 -0.07,2.65 0,0.32 -0.05,0.61 -0.07,0.93 -0.04,0.57 -0.07,1.16 -0.15,1.74 0,0.35 -0.06,0.71 -0.12,1.08 -0.08,0.52 -0.12,1.03 -0.22,1.53 -0.06,0.39 -0.14,0.75 -0.22,1.12 -0.07,0.51 -0.15,0.99 -0.25,1.48 -0.1,0.38 -0.2,0.73 -0.28,1.11 -0.1,0.47 -0.22,0.95 -0.33,1.42 -0.11,0.38 -0.22,0.73 -0.32,1.11 -0.14,0.47 -0.3,0.95 -0.46,1.38 -0.09,0.38 -0.21,0.72 -0.35,1.09 -0.16,0.47 -0.34,0.93 -0.5,1.38 -0.11,0.34 -0.25,0.69 -0.41,1.01 -0.16,0.47 -0.37,0.93 -0.57,1.4 -0.16,0.34 -0.3,0.61 -0.42,0.93 -0.24,0.51 -0.49,0.97 -0.73,1.44 -0.14,0.28 -0.28,0.57 -0.42,0.85 -0.27,0.49 -0.55,0.99 -0.8,1.46 -0.16,0.26 -0.3,0.51 -0.44,0.73 -0.33,0.58 -0.67,1.11 -1.03,1.64 -0.11,0.16 -0.21,0.34 -0.33,0.52 -0.45,0.67 -0.91,1.34 -1.41,2 0,0.01 -0.03,0.03 -0.03,0.03 -1.57,2.11 -3.28,4.09 -5.1,5.91 -0.06,0.04 -0.1,0.06 -0.12,0.1 -0.59,0.55 -1.19,1.13 -1.77,1.66 -1.29,1.15 -2.63,2.21 -4.06,3.22 -8.3,6.04 -18.53,9.6 -29.59,9.6 -27.96,0 -50.58,-22.64 -50.58,-50.58 0,-20.03 11.62,-37.36 28.51,-45.51 6.68,-3.26 14.14,-5.08 22.07,-5.08 13.33,0 25.45,5.18 34.49,13.63 0.26,0.23 0.49,0.47 0.75,0.71 0.81,0.77 1.58,1.56 2.32,2.39 0.05,0.06 0.1,0.08 0.12,0.12 0.79,0.91 1.55,1.82 2.3,2.76 0.17,0.22 0.32,0.48 0.48,0.7 0.55,0.69 1.08,1.42 1.58,2.15 0.22,0.34 0.41,0.67 0.61,1.01 0.44,0.65 0.85,1.34 1.26,2.03 0.2,0.36 0.38,0.72 0.6,1.07 0.34,0.65 0.67,1.31 0.98,1.96 l 9.53,0 c -0.42,-1.13 -0.87,-2.22 -1.36,-3.29 -0.14,-0.33 -0.32,-0.66 -0.48,-0.98 -0.33,-0.75 -0.71,-1.5 -1.12,-2.21 -0.18,-0.38 -0.38,-0.72 -0.6,-1.09 -0.39,-0.69 -0.81,-1.38 -1.24,-2.05 -0.2,-0.32 -0.42,-0.67 -0.63,-0.97 -0.5,-0.75 -1.01,-1.49 -1.57,-2.18 -0.15,-0.23 -0.31,-0.47 -0.49,-0.71 -0.75,-0.93 -1.48,-1.83 -2.29,-2.72 -0.04,-0.06 -0.06,-0.1 -0.1,-0.15 -0.75,-0.82 -1.52,-1.61 -2.31,-2.36 -0.26,-0.26 -0.53,-0.5 -0.77,-0.71 -0.71,-0.67 -1.41,-1.31 -2.13,-1.92 1.22,-0.75 2.61,-1.46 4.08,-2.11 6.54,-2.95 15.6,-5.02 27.84,-5.02 l 0.04,0 c 2.13,0 19.48,-0.18 32.6,8.2 1.66,1.04 3.24,2.23 4.74,3.57 0.16,0.16 0.32,0.3 0.47,0.46 0.66,0.61 1.29,1.24 1.86,1.89 0.1,0.14 0.2,0.2 0.28,0.3 0.65,0.75 1.29,1.56 1.86,2.39 0.15,0.2 0.27,0.39 0.39,0.61 0.45,0.65 0.91,1.39 1.32,2.15 0.12,0.22 0.24,0.42 0.36,0.66 0.5,0.93 0.93,1.88 1.32,2.9 0.08,0.22 0.16,0.46 0.22,0.66 0.32,0.82 0.59,1.69 0.83,2.59 0.1,0.35 0.2,0.7 0.27,1.04 0.26,1.03 0.48,2.1 0.62,3.2 0.04,0.12 0.06,0.2 0.08,0.31 l 0,0.16 c 0.75,6.27 -0.4,11.13 -2.93,14.98 -0.27,0.39 -0.53,0.77 -0.82,1.14 -0.29,0.4 -0.62,0.77 -0.97,1.15 -0.32,0.36 -0.66,0.73 -1,1.05 -0.37,0.36 -0.76,0.71 -1.16,1.03 -0.04,0.05 -0.1,0.09 -0.14,0.13 0.32,-0.13 0.65,-0.3 0.99,-0.43 0.51,-0.26 0.99,-0.5 1.46,-0.75 0.5,-0.28 0.99,-0.53 1.47,-0.82 0.45,-0.27 0.88,-0.55 1.32,-0.84 0.45,-0.3 0.89,-0.6 1.32,-0.89 0.4,-0.32 0.8,-0.63 1.17,-0.95 0.4,-0.34 0.77,-0.67 1.12,-1.03 0.2,-0.17 0.38,-0.37 0.56,-0.55 0,-0.04 0.06,-0.04 0.07,-0.04 8.41,-1.76 16.01,-2.82 21.56,-4.25 l 1.58,-0.45 c 3.67,-1.09 6.24,-2.43 7.2,-4.43 0.33,-0.67 0.48,-1.38 0.45,-2.19 -0.2,-5.92 -5.14,-9.11 -11.89,-9.03 -2.4,0 -4.37,0.16 -6.11,0.49 -3.04,0.62 -5.21,1.86 -7.11,4.02 -0.16,0.15 -0.28,0.33 -0.41,0.51 -0.07,-0.79 -0.07,-1.54 -0.17,-2.37 l 0,-0.16 c -0.04,-0.14 -0.05,-0.23 -0.05,-0.34 -0.19,-1.1 -0.38,-2.16 -0.64,-3.19 -0.1,-0.36 -0.16,-0.69 -0.27,-1.05 -0.24,-0.89 -0.5,-1.76 -0.83,-2.59 -0.08,-0.2 -0.15,-0.43 -0.2,-0.63 -0.41,-1.03 -0.85,-2 -1.32,-2.92 -0.14,-0.22 -0.26,-0.46 -0.4,-0.67 -0.39,-0.74 -0.85,-1.45 -1.3,-2.16 -0.14,-0.2 -0.28,-0.4 -0.4,-0.59 -0.59,-0.83 -1.2,-1.64 -1.88,-2.39 -0.07,-0.09 -0.15,-0.18 -0.25,-0.28 -0.59,-0.67 -1.23,-1.29 -1.86,-1.9 -0.16,-0.16 -0.32,-0.29 -0.5,-0.45 -1.36,-1.25 -2.78,-2.37 -4.32,-3.34 3.52,-1.32 7.61,-2.41 12.43,-3.08 l 3.91,-0.44 c 2.63,-0.21 5.86,-0.41 8.89,-0.41 l 0.08,0 c 3.26,-0.04 42.91,-0.4 47.13,30.93 1.15,9.13 -1.66,15.28 -7.01,19.68"
             style="fill:#ffffff;fill-opacity:1;fill-rule:nonzero;stroke:none"
             id="path6268"
             inkscape:connector-curvature="0" /></g></g></g></g></svg>